<?xml version="1.0" standalone="no"?>
<!DOCTYPE svg PUBLIC "-//W3C//DTD SVG 20010904//EN"
 "http://www.w3.org/TR/2001/REC-SVG-20010904/DTD/svg10.dtd">
<svg version="1.0" xmlns="http://www.w3.org/2000/svg"
 width="601.000000pt" height="601.000000pt" viewBox="0 0 601.000000 601.000000"
 preserveAspectRatio="xMidYMid meet">
<metadata>
Created by potrace 1.14, written by Peter Selinger 2001-2017
</metadata>
<g transform="translate(0.000000,601.000000) scale(0.100000,-0.100000)"
fill="#000000" stroke="none">
<path d="M2970 5645 c-3 -203 -5 -372 -3 -374 11 -16 13 47 11 375 l-3 369 -5
-370z"/>
<path d="M2999 5678 c-1 -183 -2 -352 -2 -375 l0 -43 -43 0 c-71 0 -196 -20
-254 -42 -30 -11 -70 -24 -89 -28 -19 -5 -37 -12 -40 -17 -3 -5 -28 -22 -56
-37 -27 -16 -60 -38 -72 -49 -13 -11 -26 -17 -30 -13 -4 4 0 12 10 18 14 8 16
13 6 24 -6 8 -16 14 -21 14 -6 0 -6 -6 1 -14 9 -10 9 -16 1 -21 -6 -4 -8 -15
-5 -26 5 -14 -1 -22 -19 -31 -14 -6 -26 -17 -26 -24 0 -24 -20 -25 -30 -2 -9
21 -10 21 -7 -7 1 -21 -6 -38 -23 -56 -46 -49 -80 -89 -80 -96 0 -3 -10 -20
-23 -37 -13 -17 -26 -39 -30 -49 -5 -14 -11 -16 -26 -7 -11 5 -22 10 -25 10
-7 0 -1 -43 7 -58 10 -15 -15 -54 -30 -47 -7 2 -13 -2 -13 -10 0 -8 -7 -15
-15 -15 -8 0 -15 -7 -15 -15 0 -18 12 -19 28 -3 8 8 12 9 12 1 0 -6 -7 -18
-15 -27 -8 -8 -18 -29 -21 -45 -4 -17 -10 -31 -15 -31 -5 0 -9 -9 -9 -19 0
-26 -17 -36 -23 -14 -2 10 -3 7 -1 -7 4 -29 -36 -150 -50 -150 -9 0 -4 31 9
64 8 19 8 19 -12 -1 -15 -15 -19 -31 -17 -74 1 -30 -1 -58 -6 -64 -4 -5 -11
-28 -15 -50 -3 -22 -12 -53 -19 -70 -27 -64 -48 -132 -52 -165 -3 -19 -10 -51
-17 -70 -6 -19 -12 -39 -12 -45 -1 -5 -14 -76 -29 -157 -22 -113 -32 -145 -42
-141 -17 6 -47 -59 -41 -91 4 -23 11 -12 21 37 4 15 11 27 16 27 13 0 13 -37
0 -45 -6 -4 -10 -14 -9 -23 2 -10 -2 -42 -9 -72 -6 -30 -16 -83 -23 -117 -9
-49 -14 -59 -24 -50 -7 7 -31 21 -55 32 -41 19 -42 20 -19 27 18 6 16 7 -9 3
-18 -3 -64 1 -102 7 -129 22 -290 -23 -364 -101 -36 -37 -55 -41 -32 -6 16 24
16 25 -9 25 -29 0 -28 2 -14 -39 9 -26 8 -35 -4 -49 -8 -9 -24 -45 -35 -79
-23 -65 -23 -62 14 -190 7 -24 94 -93 117 -93 8 0 17 -3 21 -7 3 -4 14 -8 22
-9 31 -5 119 -27 128 -32 5 -3 1 -9 -10 -14 -12 -5 -4 -6 24 -3 23 3 73 0 110
-6 37 -6 74 -11 83 -11 19 1 16 -15 -52 -228 -22 -69 -39 -128 -39 -132 0 -4
-5 -19 -12 -35 -6 -15 -12 -35 -14 -43 -2 -8 -7 -23 -13 -35 -5 -11 -12 -29
-16 -40 -7 -19 -8 -18 -15 5 -5 18 -7 11 -7 -25 0 -49 -38 -155 -55 -155 -4 0
-8 -15 -9 -32 0 -18 -3 -27 -6 -20 -9 24 -22 12 -17 -16 4 -19 0 -34 -10 -45
-9 -9 -15 -21 -14 -28 2 -6 -3 -14 -9 -16 -8 -3 -13 4 -13 16 0 22 -14 28 -25
11 -3 -5 -1 -10 5 -10 6 0 8 -5 5 -10 -4 -6 -11 -8 -16 -5 -5 4 -9 -1 -9 -9 0
-8 5 -18 10 -21 6 -3 10 1 10 9 0 16 15 22 23 9 3 -5 -2 -26 -11 -47 -13 -34
-17 -37 -24 -20 -6 15 -7 13 -3 -7 4 -25 -27 -94 -140 -307 -11 -21 -29 -59
-40 -85 -11 -26 -23 -47 -27 -47 -5 0 -8 -6 -8 -14 0 -7 -7 -27 -15 -42 -8
-16 -15 -38 -16 -49 0 -11 -3 -14 -6 -7 -2 6 -11 12 -19 12 -12 0 -12 -4 -3
-21 8 -17 6 -33 -11 -80 -13 -32 -26 -59 -31 -59 -5 0 -9 -8 -9 -18 0 -25 -65
-154 -73 -146 -4 4 -7 -7 -7 -24 0 -20 -5 -31 -12 -29 -8 1 -13 -9 -13 -24 0
-15 -13 -56 -30 -92 -27 -59 -33 -66 -62 -69 -26 -2 -31 -6 -23 -18 9 -13 11
-13 19 0 6 8 13 12 16 9 3 -4 -6 -28 -20 -55 -21 -38 -25 -42 -20 -19 4 16 3
26 -1 22 -4 -4 -9 -26 -10 -49 -1 -22 -6 -43 -11 -47 -4 -3 -18 -28 -31 -55
-13 -26 -26 -46 -29 -42 -3 3 -1 12 6 19 9 11 8 17 -3 26 -13 11 -14 6 -11
-34 4 -34 1 -47 -10 -51 -8 -4 -15 -12 -15 -19 0 -15 -59 -137 -70 -145 -3 -3
-17 -24 -30 -48 -13 -23 -28 -42 -32 -42 -5 0 -7 -3 -4 -8 2 -4 -7 -25 -20
-47 -17 -28 -24 -34 -24 -20 0 15 -3 16 -12 7 -10 -10 -10 -15 2 -22 9 -6
1087 -10 2837 -10 l2823 0 0 3005 0 3005 -1505 0 -1505 0 -1 -332z m-1044
-1357 c3 -5 1 -12 -5 -16 -5 -3 -10 1 -10 9 0 18 6 21 15 7z m1050 -449 c-7
-4 -8 -211 -5 -602 l5 -595 32 50 c78 119 106 134 221 116 105 -16 150 -61
159 -157 7 -74 -17 -172 -53 -220 -15 -19 -25 -36 -23 -37 2 -2 42 -14 89 -27
110 -31 214 -71 320 -122 165 -81 237 -138 306 -243 74 -113 82 -147 46 -202
l-14 -23 -1093 0 -1092 0 -17 58 c-42 141 -58 363 -36 502 6 36 19 133 30 215
26 190 66 388 126 630 8 33 17 69 19 79 29 125 39 162 46 171 5 5 9 18 9 30 0
11 12 56 26 100 14 44 27 89 30 100 9 51 28 105 38 113 44 35 343 63 736 70
58 1 101 -2 95 -6z m240 -776 c30 -45 -20 -91 -64 -59 -25 17 -27 40 -4 65 22
25 50 23 68 -6z m792 -1402 c-108 -182 -277 -358 -412 -427 -198 -101 -321
-123 -645 -114 -153 4 -232 11 -310 27 -285 58 -493 202 -670 464 -39 58 -60
93 -60 101 0 3 479 5 1065 5 l1064 0 -32 -56z"/>
<path d="M2704 3210 c-54 -24 -84 -67 -84 -119 0 -27 -4 -39 -12 -37 -7 1 -10
1 -6 -1 4 -3 20 -26 34 -53 52 -96 181 -111 256 -30 42 46 49 151 12 187 -7 8
-17 20 -21 27 -12 19 -78 46 -110 45 -15 0 -46 -9 -69 -19z m104 -102 c35 -35
-14 -102 -57 -78 -14 7 -21 21 -21 38 0 33 16 52 45 52 12 0 26 -5 33 -12z"/>
<path d="M3168 2703 c-18 -5 -33 -38 -30 -63 7 -48 14 -59 42 -69 55 -19 100
12 100 70 0 56 -44 80 -112 62z"/>
<path d="M2704 2675 c-25 -38 -12 -89 27 -105 26 -11 36 -10 65 3 30 15 34 21
34 55 0 49 -24 72 -73 72 -28 0 -40 -6 -53 -25z"/>
<path d="M2801 5286 c10 -9 79 -14 79 -5 0 5 -19 9 -42 9 -23 0 -39 -2 -37 -4z"/>
<path d="M2668 5263 c7 -3 16 -2 19 1 4 3 -2 6 -13 5 -11 0 -14 -3 -6 -6z"/>
<path d="M2728 5253 c6 -2 18 -2 25 0 6 3 1 5 -13 5 -14 0 -19 -2 -12 -5z"/>
<path d="M2490 5200 c8 -5 20 -10 25 -10 6 0 3 5 -5 10 -8 5 -19 10 -25 10 -5
0 -3 -5 5 -10z"/>
<path d="M2565 5200 c3 -5 12 -7 20 -3 21 7 19 13 -6 13 -11 0 -18 -4 -14 -10z"/>
<path d="M2480 5181 c0 -5 5 -11 10 -13 6 -2 2 -13 -10 -26 -28 -29 -8 -28 24
1 l26 24 -25 11 c-14 6 -25 8 -25 3z"/>
<path d="M2535 5180 c3 -5 10 -10 16 -10 5 0 9 5 9 10 0 6 -7 10 -16 10 -8 0
-12 -4 -9 -10z"/>
<path d="M2249 4970 c0 -3 -2 -18 -4 -34 -4 -29 -4 -29 12 -7 11 17 12 26 4
34 -6 6 -11 9 -12 7z"/>
<path d="M2195 4879 c-11 -17 -2 -18 19 -3 17 12 17 14 4 14 -9 0 -20 -5 -23
-11z"/>
<path d="M2160 4826 c0 -8 -6 -17 -12 -20 -7 -3 -4 -5 7 -3 20 2 35 37 16 37
-6 0 -11 -6 -11 -14z"/>
<path d="M2080 4800 c0 -5 5 -10 10 -10 6 0 10 5 10 10 0 6 -4 10 -10 10 -5 0
-10 -4 -10 -10z"/>
<path d="M2090 4699 c0 -5 5 -7 10 -4 6 3 10 8 10 11 0 2 -4 4 -10 4 -5 0 -10
-5 -10 -11z"/>
<path d="M2006 4634 c-4 -9 -4 -19 -2 -21 8 -8 26 8 26 23 0 19 -16 18 -24 -2z"/>
<path d="M2010 4575 c-12 -14 -5 -55 10 -55 8 0 20 34 20 58 0 16 -15 15 -30
-3z"/>
<path d="M1866 4241 c-4 -7 -5 -15 -2 -18 9 -9 19 4 14 18 -4 11 -6 11 -12 0z"/>
<path d="M1851 4189 c1 -8 4 -25 9 -39 l7 -25 12 29 c6 16 10 34 7 40 -2 6 -5
2 -6 -9 -1 -20 -1 -20 -15 -1 -10 14 -15 15 -14 5z"/>
<path d="M1841 4144 c0 -11 3 -14 6 -6 3 7 2 16 -1 19 -3 4 -6 -2 -5 -13z"/>
<path d="M1852 4090 c0 -14 2 -19 5 -12 2 6 2 18 0 25 -3 6 -5 1 -5 -13z"/>
<path d="M1760 3893 c0 -12 7 -29 16 -38 13 -12 14 -19 4 -30 -7 -9 -8 -15 -2
-15 20 0 20 29 1 66 -14 29 -19 33 -19 17z"/>
<path d="M1774 3783 c-6 -2 -9 -15 -6 -31 l5 -27 8 29 c9 33 9 35 -7 29z"/>
<path d="M1680 3595 c0 -8 2 -15 4 -15 2 0 6 7 10 15 3 8 1 15 -4 15 -6 0 -10
-7 -10 -15z"/>
<path d="M1680 3541 c0 -5 5 -13 10 -16 6 -3 10 -2 10 4 0 5 -4 13 -10 16 -5
3 -10 2 -10 -4z"/>
<path d="M1681 3484 c0 -11 3 -14 6 -6 3 7 2 16 -1 19 -3 4 -6 -2 -5 -13z"/>
<path d="M1453 3363 c9 -2 25 -2 35 0 9 3 1 5 -18 5 -19 0 -27 -2 -17 -5z"/>
<path d="M1689 3359 c-1 -8 -2 -18 -4 -24 -1 -5 -3 -18 -3 -27 -2 -12 -11 -18
-29 -18 l-26 0 23 -20 c13 -11 26 -20 30 -20 9 0 23 111 15 118 -3 3 -6 -1 -6
-9z"/>
<path d="M1403 3343 c24 -3 35 -8 31 -15 -5 -8 -1 -9 10 -5 10 4 24 7 32 7 8
0 14 3 14 8 0 4 -28 7 -63 8 -34 0 -45 -1 -24 -3z"/>
<path d="M1125 3281 c-8 -14 3 -51 15 -51 18 0 21 20 7 41 -10 13 -17 16 -22
10z"/>
<path d="M1195 3280 c-3 -5 3 -10 14 -10 11 0 23 5 26 10 3 6 -3 10 -14 10
-11 0 -23 -4 -26 -10z"/>
<path d="M1046 3133 c-6 -14 -5 -15 5 -6 7 7 10 15 7 18 -3 3 -9 -2 -12 -12z"/>
<path d="M970 3022 c0 -43 13 -112 21 -112 5 0 9 14 9 30 0 17 -4 30 -8 30 -5
0 -7 13 -4 29 2 16 -1 32 -7 35 -7 4 -11 -1 -11 -12z"/>
<path d="M1046 2786 c2 -55 2 -56 42 -55 23 1 28 3 15 6 -13 2 -23 9 -23 14 0
5 10 9 23 10 17 1 15 3 -10 10 -21 6 -30 14 -27 23 3 7 -1 16 -8 18 -9 4 -13
-4 -12 -26z"/>
<path d="M1341 2679 c-13 -5 -21 -12 -18 -15 9 -9 68 7 61 17 -6 11 -12 11
-43 -2z"/>
<path d="M1425 2660 c-25 -11 1 -11 35 0 20 6 21 8 5 8 -11 0 -29 -3 -40 -8z"/>
<path d="M1502 2654 c9 -3 19 -13 22 -22 3 -12 4 -12 3 3 -1 12 -10 21 -22 22
-15 1 -15 0 -3 -3z"/>
<path d="M1444 2509 c-1 -51 0 -52 9 -21 6 20 7 40 0 54 -7 17 -9 10 -9 -33z"/>
<path d="M1458 2444 c-20 -38 -24 -69 -8 -59 6 3 10 16 10 29 0 12 5 27 11 33
6 6 10 16 8 21 -2 6 -12 -5 -21 -24z"/>
<path d="M1366 2314 c-4 -10 -1 -14 6 -12 15 5 23 28 10 28 -5 0 -13 -7 -16
-16z"/>
<path d="M1404 2297 c-18 -21 -27 -87 -11 -87 4 0 7 13 7 30 0 17 9 37 21 49
11 10 16 21 12 24 -5 3 -18 -4 -29 -16z"/>
<path d="M1280 2064 c0 -16 5 -36 10 -44 6 -10 7 -2 3 25 -7 49 -13 58 -13 19z"/>
<path d="M1287 1985 c-4 -8 -2 -17 3 -20 6 -4 10 3 10 14 0 25 -6 27 -13 6z"/>
<path d="M1206 1914 c-4 -9 -4 -19 -2 -21 8 -8 26 8 26 23 0 19 -16 18 -24 -2z"/>
<path d="M1257 1913 c-12 -12 -7 -22 8 -17 8 4 15 10 15 15 0 11 -14 12 -23 2z"/>
<path d="M1120 1745 c0 -19 5 -25 21 -25 15 0 19 4 15 16 -3 9 -6 20 -6 25 0
5 -7 9 -15 9 -9 0 -15 -9 -15 -25z"/>
<path d="M1121 1674 c0 -11 3 -14 6 -6 3 7 2 16 -1 19 -3 4 -6 -2 -5 -13z"/>
<path d="M1150 1675 c0 -8 2 -15 4 -15 2 0 6 7 10 15 3 8 1 15 -4 15 -6 0 -10
-7 -10 -15z"/>
<path d="M1130 1635 c0 -8 2 -15 4 -15 2 0 6 7 10 15 3 8 1 15 -4 15 -6 0 -10
-7 -10 -15z"/>
<path d="M1081 1524 c-1 -7 -9 -11 -18 -10 -13 1 -19 -8 -21 -28 l-4 -28 27
26 c15 15 24 32 22 39 -4 8 -6 8 -6 1z"/>
<path d="M996 1354 c-4 -9 -4 -19 -1 -22 2 -3 7 3 11 12 4 9 4 19 1 22 -2 3
-7 -3 -11 -12z"/>
<path d="M903 1164 c-3 -8 -1 -20 6 -27 8 -8 11 -4 11 16 0 30 -7 35 -17 11z"/>
<path d="M800 1040 c0 -5 7 -10 15 -10 8 0 15 5 15 10 0 6 -7 10 -15 10 -8 0
-15 -4 -15 -10z"/>
<path d="M801 1004 c0 -11 3 -14 6 -6 3 7 2 16 -1 19 -3 4 -6 -2 -5 -13z"/>
<path d="M828 987 c-3 -19 -2 -25 4 -19 6 6 8 18 6 28 -3 14 -5 12 -10 -9z"/>
<path d="M802 925 c0 -16 2 -22 5 -12 2 9 2 23 0 30 -3 6 -5 -1 -5 -18z"/>
<path d="M746 795 c-6 -16 -9 -17 -16 -5 -8 13 -10 12 -10 -2 0 -20 8 -22 29
-9 7 5 11 15 9 22 -3 9 -7 7 -12 -6z"/>
<path d="M580 469 c7 -11 14 -18 17 -15 8 8 -5 36 -17 36 -7 0 -7 -6 0 -21z"/>
<path d="M500 305 c0 -8 2 -15 4 -15 2 0 6 7 10 15 3 8 1 15 -4 15 -6 0 -10
-7 -10 -15z"/>
</g>
</svg>
